<?xml version="1.0" ?><svg data-name="Layer 1" id="Layer_1" viewBox="0 0 64 64" xmlns="http://www.w3.org/2000/svg"><defs><style>.cls-1{fill:#190933;}</style></defs><title/><path class="cls-1" d="M28,4c-2.12,0-2.89,1.54-3.39,2.55S23.81,8,23,8H17a3,3,0,0,0-3,3V61a3,3,0,0,0,3,3H47a3,3,0,0,0,3-3V48a1,1,0,0,0-2,0V61a1,1,0,0,1-1,1H17a1,1,0,0,1-1-1V11a1,1,0,0,1,1-1H27.5v1.5H19A1.5,1.5,0,0,0,17.5,13V58A1.5,1.5,0,0,0,19,59.5H45A1.5,1.5,0,0,0,46.5,58V48a.5.5,0,0,0-1,0v2a3,3,0,0,1-.85,2.43,3.22,3.22,0,0,1-2.63.34.79.79,0,0,0-.82.33.82.82,0,0,0,0,.91,2.17,2.17,0,0,1,.09,2.37A4.42,4.42,0,0,1,38,58.5H19a.5.5,0,0,1-.5-.5V13a.5.5,0,0,1,.5-.5h8.59v0a1.7,1.7,0,0,0,.19.35l.05.06a1.24,1.24,0,0,0,.26.25l0,0a2,2,0,0,0,.36.18l.08,0a1.48,1.48,0,0,0,.42.07h6a1.48,1.48,0,0,0,.42-.07l.08,0a2,2,0,0,0,.36-.18l0,0a1.24,1.24,0,0,0,.26-.25l.05-.06a1.7,1.7,0,0,0,.19-.35v0H45a.5.5,0,0,1,.5.5V35a.5.5,0,0,0,1,0V13A1.5,1.5,0,0,0,45,11.5H36.5V10H47a1,1,0,0,1,1,1V27a1,1,0,0,0,2,0V11a3,3,0,0,0-3-3H41c-.81,0-1.07-.38-1.61-1.45S38.12,4,36,4H34.82A3,3,0,0,0,35,3a3,3,0,0,0-6,0,3,3,0,0,0,.18,1ZM42.15,56.86a3.14,3.14,0,0,0,.08-3,3.86,3.86,0,0,0,3.05-.63L45.5,53v5a.5.5,0,0,1-.5.5H40.65A5.21,5.21,0,0,0,42.15,56.86ZM35.5,12a.5.5,0,0,1-.5.5H29a.5.5,0,0,1-.5-.5V10h7Zm2.11-4.55c.08.17.18.36.28.55H26.11c.1-.19.2-.38.28-.55C26.93,6.38,27.19,6,28,6h8C36.81,6,37.07,6.38,37.61,7.45ZM31,3a1,1,0,1,1,1,1A1,1,0,0,1,31,3Z"/><path class="cls-1" d="M24,40.5h8A2.5,2.5,0,0,0,34.5,38V18A2.5,2.5,0,0,0,32,15.5H24A2.5,2.5,0,0,0,21.5,18v1.15A1,1,0,0,0,21,20v2a1,1,0,0,0,.5.85V38A2.5,2.5,0,0,0,24,40.5Zm8-1H24A1.5,1.5,0,0,1,22.5,38V19.3h1c.33,0,.48.14.76.44a1.92,1.92,0,0,0,1.49.76h4.5a1.92,1.92,0,0,0,1.49-.76c.28-.3.43-.44.76-.44h1V38A1.5,1.5,0,0,1,32,39.5ZM22.5,18A1.5,1.5,0,0,1,24,16.5h8A1.5,1.5,0,0,1,33.5,18v.3h-1a1.92,1.92,0,0,0-1.49.76c-.28.3-.43.44-.76.44h-4.5c-.33,0-.48-.14-.76-.44a1.92,1.92,0,0,0-1.49-.76h-1Z"/><path class="cls-1" d="M39.5,51a.5.5,0,0,0-.5-.5H23a.5.5,0,0,0,0,1H39A.5.5,0,0,0,39.5,51Z"/><path class="cls-1" d="M40.62,42.22a1,1,0,0,0-1.4.16l-3.3,4.12-1.21-1.21a1,1,0,0,0-1.42,1.42l2,2A1,1,0,0,0,36,49h.06a1,1,0,0,0,.72-.38l4-5A1,1,0,0,0,40.62,42.22Z"/><path class="cls-1" d="M38,16.5h2a.5.5,0,0,0,0-1H38a.5.5,0,0,0,0,1Z"/><path class="cls-1" d="M38,20.5h5a.5.5,0,0,0,0-1H38a.5.5,0,0,0,0,1Z"/><path class="cls-1" d="M38,24.5h2a.5.5,0,0,0,0-1H38a.5.5,0,0,0,0,1Z"/><path class="cls-1" d="M43.5,28a.5.5,0,0,0-.5-.5H38a.5.5,0,0,0,0,1h5A.5.5,0,0,0,43.5,28Z"/><path class="cls-1" d="M41.5,32a.5.5,0,0,0-.5-.5H38a.5.5,0,0,0,0,1h3A.5.5,0,0,0,41.5,32Z"/><path class="cls-1" d="M23,54.5a.5.5,0,0,0,0,1H34a.5.5,0,0,0,0-1Z"/><path class="cls-1" d="M44.71,39.65a3,3,0,0,0-.32,3.85l-.74.74a.5.5,0,0,0,0,.71.48.48,0,0,0,.7,0l.75-.74a3,3,0,0,0,1.73.56A3,3,0,0,0,49,43.89l1.41-1.41L61.68,31.16a3,3,0,0,0,0-4.24h0a3,3,0,0,0-4-.2,3.2,3.2,0,0,0-2.63.16,17.47,17.47,0,0,0-4.89,3.78.51.51,0,0,0,0,.71.52.52,0,0,0,.71,0c3.32-3.32,5-3.95,6-3.86L46.12,38.23Zm2.83,2.83a1,1,0,0,1-1.42-1.42l.71-.71,1.41,1.42ZM58.85,28.33a1,1,0,0,1,1.41,0,1,1,0,0,1,0,1.42l-10.6,10.6-1.42-1.41Z"/></svg>